<svg width="207" height="46" viewBox="0 0 207 46" fill="none" xmlns="http://www.w3.org/2000/svg">
<path d="M2.4375 17.25L24 5.75L45.5625 17.25L24 28.75L2.4375 17.25Z" stroke="#FF6636" stroke-width="3.45" stroke-linecap="round" stroke-linejoin="round"/>
<path d="M34.7812 43.125V23L24 17.25" stroke="#FF6636" stroke-width="3.45" stroke-linecap="round" stroke-linejoin="round"/>
<path d="M40.5313 19.9336V29.7303C40.5319 30.0404 40.4316 30.3423 40.2456 30.5904C39.0351 32.2012 33.9283 38.094 24 38.094C14.0717 38.094 8.96486 32.2012 7.75437 30.5904C7.5684 30.3423 7.46816 30.0404 7.46875 29.7303V19.9336" stroke="#FF6636" stroke-width="3.45" stroke-linecap="round" stroke-linejoin="round"/>
<path d="M58.8398 36V9.23636H69.0852C71.0193 9.23636 72.6267 9.54129 73.9074 10.1511C75.1968 10.7523 76.1595 11.5756 76.7955 12.621C77.4402 13.6665 77.7625 14.8513 77.7625 16.1756C77.7625 17.2646 77.5534 18.1968 77.1352 18.9722C76.7171 19.7388 76.1551 20.3617 75.4494 20.8409C74.7438 21.3201 73.9553 21.6642 73.0841 21.8733V22.1347C74.0337 22.1869 74.9441 22.4788 75.8154 23.0102C76.6953 23.533 77.414 24.2735 77.9716 25.2318C78.5292 26.1902 78.808 27.3489 78.808 28.708C78.808 30.0932 78.4726 31.339 77.8017 32.4455C77.1309 33.5432 76.1203 34.41 74.7699 35.046C73.4195 35.682 71.7207 36 69.6733 36H58.8398ZM63.6881 31.9489H68.9023C70.6621 31.9489 71.9297 31.6134 72.7051 30.9426C73.4892 30.2631 73.8813 29.3919 73.8813 28.329C73.8813 27.5362 73.6852 26.8218 73.2932 26.1858C72.9011 25.5411 72.3436 25.0358 71.6205 24.6699C70.8974 24.2953 70.0349 24.108 69.033 24.108H63.6881V31.9489ZM63.6881 20.6188H68.4841C69.3205 20.6188 70.0741 20.4663 70.7449 20.1614C71.4157 19.8477 71.9428 19.4078 72.3261 18.8415C72.7182 18.2665 72.9142 17.5869 72.9142 16.8028C72.9142 15.7661 72.5483 14.9123 71.8165 14.2415C71.0934 13.5706 70.0174 13.2352 68.5886 13.2352H63.6881V20.6188ZM81.9217 36V9.23636H86.77V21.5335H87.0967L97.5382 9.23636H103.458L93.1081 21.246L103.55 36H97.7212L89.7365 24.5261L86.77 28.0284V36H81.9217ZM115.272 20.671V24.5653H103.223V20.671H115.272ZM116.524 13.3006V9.23636H137.877V13.3006H129.605V36H124.796V13.3006H116.524ZM150.743 27.558V15.9273H155.474V36H150.887V32.4324H150.677C150.224 33.5562 149.48 34.4754 148.443 35.1898C147.415 35.9042 146.147 36.2614 144.64 36.2614C143.324 36.2614 142.161 35.9695 141.151 35.3858C140.149 34.7934 139.365 33.9352 138.799 32.8114C138.232 31.6788 137.949 30.311 137.949 28.708V15.9273H142.68V27.9761C142.68 29.2481 143.028 30.2587 143.725 31.008C144.422 31.7572 145.337 32.1318 146.47 32.1318C147.166 32.1318 147.842 31.9619 148.495 31.6222C149.149 31.2824 149.684 30.7771 150.102 30.1063C150.529 29.4267 150.743 28.5773 150.743 27.558ZM169.257 15.9273V19.5864H157.718V15.9273H169.257ZM160.567 11.1182H165.298V29.9625C165.298 30.5985 165.394 31.0864 165.585 31.4261C165.786 31.7572 166.047 31.9837 166.369 32.1057C166.692 32.2277 167.049 32.2886 167.441 32.2886C167.737 32.2886 168.007 32.2669 168.251 32.2233C168.504 32.1797 168.695 32.1405 168.826 32.1057L169.623 35.804C169.371 35.8911 169.009 35.9869 168.539 36.0915C168.077 36.196 167.511 36.257 166.84 36.2744C165.655 36.3093 164.588 36.1307 163.638 35.7386C162.688 35.3379 161.935 34.7193 161.377 33.883C160.828 33.0466 160.558 32.0011 160.567 30.7466V11.1182ZM180.65 36.392C178.69 36.392 176.991 35.9608 175.553 35.0983C174.116 34.2358 173.001 33.0292 172.208 31.4784C171.424 29.9277 171.032 28.1155 171.032 26.042C171.032 23.9686 171.424 22.1521 172.208 20.5926C173.001 19.0331 174.116 17.8222 175.553 16.9597C176.991 16.0972 178.69 15.6659 180.65 15.6659C182.61 15.6659 184.309 16.0972 185.746 16.9597C187.184 17.8222 188.295 19.0331 189.079 20.5926C189.872 22.1521 190.268 23.9686 190.268 26.042C190.268 28.1155 189.872 29.9277 189.079 31.4784C188.295 33.0292 187.184 34.2358 185.746 35.0983C184.309 35.9608 182.61 36.392 180.65 36.392ZM180.676 32.6023C181.739 32.6023 182.628 32.3104 183.342 31.7267C184.056 31.1343 184.588 30.3415 184.936 29.3483C185.293 28.3551 185.472 27.2487 185.472 26.029C185.472 24.8006 185.293 23.6898 184.936 22.6966C184.588 21.6947 184.056 20.8975 183.342 20.3051C182.628 19.7127 181.739 19.4165 180.676 19.4165C179.587 19.4165 178.681 19.7127 177.958 20.3051C177.243 20.8975 176.708 21.6947 176.35 22.6966C176.002 23.6898 175.828 24.8006 175.828 26.029C175.828 27.2487 176.002 28.3551 176.35 29.3483C176.708 30.3415 177.243 31.1343 177.958 31.7267C178.681 32.3104 179.587 32.6023 180.676 32.6023ZM193.179 36V15.9273H197.766V19.2727H197.975C198.341 18.114 198.968 17.221 199.857 16.5938C200.754 15.9578 201.778 15.6398 202.928 15.6398C203.189 15.6398 203.481 15.6528 203.804 15.679C204.135 15.6964 204.409 15.7269 204.627 15.7705V20.1222C204.427 20.0525 204.109 19.9915 203.673 19.9392C203.246 19.8782 202.832 19.8477 202.432 19.8477C201.569 19.8477 200.794 20.035 200.105 20.4097C199.426 20.7756 198.89 21.2852 198.498 21.9386C198.106 22.592 197.91 23.3456 197.91 24.1994V36H193.179Z" fill="white"/>
</svg>
